<svg width="161" height="170" viewBox="0 0 161 170" fill="none" xmlns="http://www.w3.org/2000/svg">
    <g clip-path="url(#clip0_0_1)">
    <path d="M0 1C11.9011 0.930226 23.8022 0.877052 35.7035 0.844566C41.2309 0.828968 46.7581 0.807838 52.2854 0.773685C57.6282 0.740881 62.9708 0.723106 68.3137 0.715371C70.3432 0.709865 72.3728 0.699114 74.4023 0.682813C93.3354 0.536908 107.479 3.47011 124 13C124 13.66 124 14.32 124 15C124.57 15.2372 125.14 15.4744 125.727 15.7188C133.487 20.0921 139.066 29.2285 143 37C143.391 37.7709 143.781 38.5417 144.184 39.3359C150.564 54.1529 150.448 71.9707 145 87C143.259 90.8703 141.263 94.418 139 98C138.317 99.3251 137.644 100.656 137 102C136.34 102 135.68 102 135 102C134.34 103.65 133.68 105.3 133 107C132.34 107 131.68 107 131 107C131 107.66 131 108.32 131 109C130.34 109.66 129.68 110.32 129 111C134.233 120.413 139.575 129.759 145 139.062C145.898 140.603 145.898 140.603 146.813 142.175C149.474 146.727 152.147 151.268 154.898 155.766C155.323 156.46 155.747 157.155 156.184 157.871C156.953 159.125 157.729 160.377 158.512 161.623C160.182 164.341 161 165.739 161 169C152.89 169.186 144.78 169.328 136.668 169.415C132.901 169.456 129.135 169.513 125.369 169.604C121.732 169.691 118.095 169.738 114.457 169.759C113.072 169.774 111.686 169.803 110.302 169.846C99.4553 170.171 99.4553 170.171 95.8328 167.256C94.2889 165.229 93.1114 163.287 92 161C91.4895 160.157 90.9791 159.314 90.4531 158.445C90.0561 157.68 89.6591 156.914 89.25 156.125C88.7627 155.208 88.2755 154.292 87.7734 153.348C87.1882 152.243 86.603 151.138 86 150C84.3065 146.846 82.5938 143.703 80.875 140.562C80.2451 139.39 80.2451 139.39 79.6025 138.194C76.5824 132.442 76.5824 132.442 72 128C69.69 128 67.38 128 65 128C64.67 141.53 64.34 155.06 64 169C60.7 169 57.4 169 54 169C54 168.34 54 167.68 54 167C52.68 166.34 51.36 165.68 50 165C50 164.34 50 163.68 50 163C49.1995 162.693 49.1995 162.693 48.3828 162.379C45.0006 160.422 42.5696 157.74 39.875 154.938C36.3045 150.996 36.3045 150.996 32 148C32 147.34 32 146.68 32 146C31.34 146 30.68 146 30 146C30 145.34 30 144.68 30 144C29.1647 143.66 29.1647 143.66 28.3125 143.312C25.3384 141.624 23.2799 139.533 21 137C21 136.34 21 135.68 21 135C20.4638 134.773 19.9275 134.546 19.375 134.312C14.1835 131.444 9.37188 127.562 7 122C6.51226 118.145 6.67304 114.353 6.82812 110.477C6.85598 109.375 6.88384 108.274 6.91254 107.139C7.00565 103.634 7.12742 100.13 7.25 96.625C7.3183 94.2435 7.38473 91.862 7.44922 89.4805C7.60761 83.6524 7.80476 77.8274 8 72C23.345 71.505 23.345 71.505 39 71C37.6065 67.5164 36.3249 64.645 34.4688 61.4609C33.7475 60.2196 33.7475 60.2196 33.0117 58.9531C32.5129 58.1023 32.014 57.2516 31.5 56.375C31.0011 55.5165 30.5023 54.658 29.9883 53.7734C28.0572 50.4601 26.1279 47.1919 24 44C24 43.01 24 42.02 24 41C23.34 41 22.68 41 22 41C21.6236 40.2201 21.2472 39.4402 20.8594 38.6367C18.5035 33.9291 15.8638 29.3802 13.25 24.8125C12.7179 23.8801 12.1859 22.9477 11.6377 21.9871C8.29338 16.1589 4.84974 10.4471 1.10938 4.86328C0 3 0 3 0 1ZM23 14C24.4809 17.7795 26.1505 21.385 28 25C28.66 25 29.32 25 30 25C30.1083 25.7386 30.2166 26.4773 30.3281 27.2383C31.0397 30.1631 31.9912 31.7715 33.75 34.1875C35.9936 37.4056 37.8664 40.5875 39.5625 44.125C41.3282 47.7919 43.3035 50.9134 45.7461 54.1523C47.7377 57.0871 49.1896 60.2663 50.6914 63.4727C51.1232 64.3067 51.5551 65.1407 52 66C52.4331 67.0777 52.8662 68.1553 53.3125 69.2656C56.5479 72.5574 57.6296 72.4864 62.1211 72.7617C64.56 72.7684 66.9992 72.7424 69.4375 72.6875C70.6653 72.7023 71.8932 72.7171 73.1582 72.7324C80.3796 72.916 80.3796 72.916 86.3477 69.457C87.1656 68.2408 87.1656 68.2408 88 67C82.7489 57.617 77.4573 48.2651 72 39C81.7399 39.297 89.324 39.8979 96.3125 47.125C100.266 52.1343 101.568 57.9108 102.438 64.125C101.724 68.8114 99.7677 73.2576 96.3633 76.6133C94.7663 77.9136 94.7663 77.9136 95 80C93.3446 80.6942 91.6736 81.351 90 82C89.4141 82.2514 88.8282 82.5029 88.2245 82.7619C81.1922 85.4981 74.4624 85.3843 66.9961 85.293C65.6771 85.2887 64.358 85.2845 62.999 85.2801C59.5219 85.2687 56.0452 85.2394 52.5683 85.206C49.0085 85.1751 45.4486 85.1616 41.8887 85.1465C34.9256 85.1145 27.9628 85.0634 21 85C20.8009 89.6954 20.6565 94.3883 20.5605 99.0869C20.5205 100.682 20.4661 102.276 20.3965 103.87C19.7703 113.179 19.7703 113.179 22.6824 121.762C24.6856 123.779 26.668 125.384 29 127C30.2809 128.092 31.5532 129.195 32.8125 130.312C33.4583 130.867 34.1041 131.421 34.7695 131.992C39.3672 136.131 43.6631 140.591 48 145C48.99 144.67 49.98 144.34 51 144C51.33 134.43 51.66 124.86 52 115C56.3216 114.961 56.3216 114.961 60.7305 114.922C63.5638 114.883 66.397 114.838 69.2302 114.792C71.1784 114.764 73.1266 114.743 75.075 114.729C92.4317 114.595 107.042 112.988 120.473 100.746C131.076 89.7177 136.118 76.2186 136 61C134.268 46.6133 128.427 34.2734 117.375 24.8125C104.202 14.7596 89.4814 13.6832 73.4883 13.8047C72.0243 13.8084 70.5603 13.8113 69.0962 13.8133C65.2806 13.8208 61.4652 13.8404 57.6496 13.8627C53.741 13.8833 49.8324 13.8923 45.9238 13.9023C38.2825 13.9237 30.6413 13.9577 23 14ZM113.75 119.75C108.095 122.623 102.077 124.257 96 126C95.2111 126.229 94.4222 126.459 93.6094 126.695C92.0752 127.138 90.5381 127.571 89 128C90.0213 130.246 91.1055 132.411 92.2891 134.578C93.6572 137.314 94.6192 139.796 95.5859 142.672C97.7499 148.156 99.8371 152.823 105 156C116.089 158.337 127.804 157.085 139 156C137.486 151.892 135.492 148.165 133.305 144.387C132.952 143.772 132.6 143.158 132.237 142.525C131.119 140.577 129.997 138.632 128.875 136.688C128.113 135.361 127.351 134.035 126.59 132.709C124.73 129.471 122.866 126.235 121 123C120.34 123 119.68 123 119 123C118.67 121.35 118.34 119.7 118 118C116.532 117.921 116.532 117.921 113.75 119.75ZM50 145C51 147 51 147 51 147L50 145Z" fill="#15C1F0"/>
    </g>
    <defs>
    <clipPath id="clip0_0_1">
    <rect width="161" height="170" fill="white"/>
    </clipPath>
    </defs>
    </svg>
    